<svg width="29" height="29" viewBox="0 0 29 29" fill="none" xmlns="http://www.w3.org/2000/svg">
<path d="M1.72838 15.7102C2.533 15.7102 3.18528 15.0568 3.18528 14.2508C3.18528 13.4447 2.533 12.7913 1.72838 12.7913C0.923762 12.7913 0.271484 13.4447 0.271484 14.2508C0.271484 15.0568 0.923762 15.7102 1.72838 15.7102Z" fill="black"/>
<path d="M14.2728 28.1951C15.0774 28.1951 15.7297 27.5416 15.7297 26.7356C15.7297 25.9296 15.0774 25.2762 14.2728 25.2762C13.4682 25.2762 12.8159 25.9296 12.8159 26.7356C12.8159 27.5416 13.4682 28.1951 14.2728 28.1951Z" fill="black"/>
<path d="M14.2728 3.18918C15.0774 3.18918 15.7297 2.53577 15.7297 1.72973C15.7297 0.923693 15.0774 0.270264 14.2728 0.270264C13.4682 0.270264 12.8159 0.923693 12.8159 1.72973C12.8159 2.53577 13.4682 3.18918 14.2728 3.18918Z" fill="black"/>
<path d="M26.7372 15.7102C27.5418 15.7102 28.194 15.0568 28.194 14.2508C28.194 13.4447 27.5418 12.7913 26.7372 12.7913C25.9326 12.7913 25.2803 13.4447 25.2803 14.2508C25.2803 15.0568 25.9326 15.7102 26.7372 15.7102Z" fill="black"/>
<path d="M14.5011 27.0007C21.4067 27.0007 27.0047 21.3928 27.0047 14.4751C27.0047 7.55733 21.4067 1.9494 14.5011 1.9494C7.5956 1.9494 1.99756 7.55733 1.99756 14.4751C1.99756 21.3928 7.5956 27.0007 14.5011 27.0007Z" stroke="black" stroke-miterlimit="10"/>
<path d="M5.39194 24.5612C6.19656 24.5612 6.84883 23.9078 6.84883 23.1018C6.84883 22.2957 6.19656 21.6423 5.39194 21.6423C4.58733 21.6423 3.93506 22.2957 3.93506 23.1018C3.93506 23.9078 4.58733 24.5612 5.39194 24.5612Z" fill="black"/>
<path d="M23.0736 24.5021C23.8782 24.5021 24.5305 23.8487 24.5305 23.0426C24.5305 22.2366 23.8782 21.5832 23.0736 21.5832C22.269 21.5832 21.6167 22.2366 21.6167 23.0426C21.6167 23.8487 22.269 24.5021 23.0736 24.5021Z" fill="black"/>
<path d="M5.42319 6.82093C6.22781 6.82093 6.88004 6.1675 6.88004 5.36147C6.88004 4.55543 6.22781 3.90201 5.42319 3.90201C4.61858 3.90201 3.96631 4.55543 3.96631 5.36147C3.96631 6.1675 4.61858 6.82093 5.42319 6.82093Z" fill="black"/>
<path d="M23.0765 6.84586C23.8811 6.84586 24.5334 6.19244 24.5334 5.3864C24.5334 4.58037 23.8811 3.92694 23.0765 3.92694C22.2719 3.92694 21.6196 4.58037 21.6196 5.3864C21.6196 6.19244 22.2719 6.84586 23.0765 6.84586Z" fill="black"/>
</svg>
