<svg width="229" height="64" viewBox="0 0 229 64" fill="none" xmlns="http://www.w3.org/2000/svg">
<g clip-path="url(#clip0_415_76)">
<path d="M43.2616 35.8601L15.7955 20.7558L4.67529 14.6373L2.65605 13.53C0.883217 12.554 0 11.2676 0 9.98438V59.3837C0 63.4318 2.90245 65.1438 6.44492 63.195L43.2616 42.9482C46.8073 40.9993 46.8073 37.8089 43.2616 35.8601Z" fill="black"/>
<path d="M0 9.24637C0 10.4318 0.824563 11.6173 2.47966 12.53L4.36481 13.5554L14.7465 19.2218L18 21V3.91783C18 0.483025 15.5203 -0.972098 12.4849 0.684548L2.2765 6.25314C0.767798 7.07702 0.00896264 8.16169 0 9.24637Z" fill="black"/>
<path d="M94.143 18.1772L81.7012 54.5875H73.4322L61 18.1772H68.3857L77.4355 45.3778H77.8515L86.8117 18.1772H94.143Z" fill="black"/>
<path d="M97.5547 17.6602H104.214V54.592H97.5547V17.6602Z" fill="black"/>
<path d="M109.68 21.2491C109.692 20.168 110.131 19.1355 110.9 18.3758C111.669 17.6161 112.707 17.1905 113.789 17.1914C114.319 17.1926 114.843 17.2988 115.332 17.5038C115.821 17.7088 116.264 18.0085 116.637 18.3858C117.009 18.763 117.303 19.2102 117.502 19.7016C117.701 20.1931 117.801 20.719 117.795 21.2491C117.777 22.3057 117.349 23.3139 116.601 24.0609C115.854 24.8079 114.845 25.2351 113.789 25.2524C111.603 25.2524 109.68 23.3803 109.68 21.2491ZM110.464 28.5836H117.12V54.5905H110.464V28.5836Z" fill="black"/>
<path d="M123.263 28.5841H129.343L129.916 31.653H130.332C131.894 29.6241 134.076 28.0625 137.977 28.0625C144.169 28.0625 148.121 32.0178 148.121 38.8307V54.591H141.471V40.1907C141.471 35.925 139.026 33.8418 135.903 33.8418C132.78 33.8418 129.922 35.8706 129.922 40.5011V54.5814H123.263V28.5841Z" fill="black"/>
<path d="M178.221 17.6602V54.592H172.813L172.24 51.5232H171.773C170.525 53.1904 168.08 55.1137 164.022 55.1137C157.049 55.1137 151.798 49.808 151.798 41.5358C151.798 33.0588 157.206 28.0636 164.022 28.0636C167.542 28.0636 170.16 29.4684 171.565 31.03V17.6602H178.221ZM171.565 41.5358C171.565 36.9597 169.005 33.8365 165.062 33.8365C161.12 33.8365 158.464 36.9597 158.464 41.5358C158.464 46.2175 161.117 49.3407 165.072 49.3407C169.027 49.3407 171.565 46.2175 171.565 41.5358Z" fill="black"/>
<path d="M207.664 46.3732C206.624 51.7301 202.151 55.1126 195.546 55.1126C187.795 55.1126 182.176 49.8581 182.176 41.8484C182.176 33.2658 188.105 28.0625 195.296 28.0625C201.696 28.0625 207.626 32.1202 207.626 41.4323C207.626 42.0564 207.575 42.6292 207.523 43.3524H188.784C189.043 47.0997 191.488 49.8037 195.546 49.8037C198.458 49.8037 200.538 48.6069 201.267 46.37L207.664 46.3732ZM188.835 38.8819H201.267C201.111 35.6562 198.707 33.3682 195.283 33.3682C191.696 33.3682 189.302 35.7618 188.835 38.8819Z" fill="black"/>
<path d="M211.904 28.5841H217.936L218.576 32.277H218.992C220.592 29.6753 222.371 28.0625 226.742 28.0625H228.614V34.7218C227.685 34.5747 226.745 34.5051 225.805 34.5138C220.083 34.5138 218.576 38.7251 218.576 42.4724V54.591H211.904V28.5841Z" fill="black"/>
</g>
<defs>
<clipPath id="clip0_415_76">
<rect width="229" height="64" fill="white"/>
</clipPath>
</defs>
</svg>
