<svg width="100%" height="100%" viewBox="0 0 44 51" fill="none" xmlns="http://www.w3.org/2000/svg">
<path d="M25.8855 5.09171C27.2677 5.09171 28.3882 3.95189 28.3882 2.54586C28.3882 1.13982 27.2677 0 25.8855 0C24.5033 0 23.3828 1.13982 23.3828 2.54586C23.3828 3.95189 24.5033 5.09171 25.8855 5.09171Z" fill="black"/>
<path d="M29.5222 12.7909C30.9044 12.7909 32.0249 11.6511 32.0249 10.2451C32.0249 8.83904 30.9044 7.69922 29.5222 7.69922C28.14 7.69922 27.0195 8.83904 27.0195 10.2451C27.0195 11.6511 28.14 12.7909 29.5222 12.7909Z" fill="black"/>
<path d="M33.2409 20.5722C34.6231 20.5722 35.7436 19.4324 35.7436 18.0263C35.7436 16.6203 34.6231 15.4805 33.2409 15.4805C31.8588 15.4805 30.7383 16.6203 30.7383 18.0263C30.7383 19.4324 31.8588 20.5722 33.2409 20.5722Z" fill="black"/>
<path d="M37.3777 28.1737C38.7599 28.1737 39.8803 27.0339 39.8803 25.6279C39.8803 24.2218 38.7599 23.082 37.3777 23.082C35.9955 23.082 34.875 24.2218 34.875 25.6279C34.875 27.0339 35.9955 28.1737 37.3777 28.1737Z" fill="black"/>
<path d="M41.0183 36.0019C42.4005 36.0019 43.521 34.8621 43.521 33.456C43.521 32.05 42.4005 30.9102 41.0183 30.9102C39.6361 30.9102 38.5156 32.05 38.5156 33.456C38.5156 34.8621 39.6361 36.0019 41.0183 36.0019Z" fill="black"/>
<path d="M0 3.58984H24.0209V2.58984H0V3.58984Z" fill="black"/>
<path d="M0 11.293H27.9116V10.293H0V11.293Z" fill="black"/>
<path d="M0 19H31.7985V18H0V19Z" fill="black"/>
<path d="M0 26.707H35.6854V25.707H0V26.707Z" fill="black"/>
<path d="M0 34.4102H39.5761V33.4102H0V34.4102Z" fill="black"/>
</svg>
