<svg width="29" height="29" viewBox="0 0 29 29" fill="none" xmlns="http://www.w3.org/2000/svg">
<path d="M9.35606 17.0886C10.3636 17.0886 11.1804 16.2718 11.1804 15.2643C11.1804 14.2567 10.3636 13.4399 9.35606 13.4399C8.34852 13.4399 7.53174 14.2567 7.53174 15.2643C7.53174 16.2718 8.34852 17.0886 9.35606 17.0886Z" fill="black"/>
<path d="M19.004 17.0886C20.0116 17.0886 20.8283 16.2718 20.8283 15.2643C20.8283 14.2567 20.0116 13.4399 19.004 13.4399C17.9965 13.4399 17.1797 14.2567 17.1797 15.2643C17.1797 16.2718 17.9965 17.0886 19.004 17.0886Z" fill="black"/>
<path d="M9.29665 15.2041H1" stroke="black" stroke-miterlimit="10" stroke-linecap="round"/>
<path d="M27.9993 15.2041H19.7007" stroke="black" stroke-miterlimit="10" stroke-linecap="round"/>
<path d="M14.5597 21.5879C15.5672 21.5879 16.384 20.7711 16.384 19.7635C16.384 18.756 15.5672 17.9392 14.5597 17.9392C13.5521 17.9392 12.7354 18.756 12.7354 19.7635C12.7354 20.7711 13.5521 21.5879 14.5597 21.5879Z" fill="black"/>
<path d="M14.5597 11.9402C15.5672 11.9402 16.384 11.1234 16.384 10.1158C16.384 9.10828 15.5672 8.2915 14.5597 8.2915C13.5521 8.2915 12.7354 9.10828 12.7354 10.1158C12.7354 11.1234 13.5521 11.9402 14.5597 11.9402Z" fill="black"/>
<path d="M14.5 19.7034V28" stroke="black" stroke-miterlimit="10" stroke-linecap="round"/>
<path d="M14.5 1V9.29862" stroke="black" stroke-miterlimit="10" stroke-linecap="round"/>
</svg>
