<svg viewBox="0 0 29 29" fill="none"
    xmlns="http://www.w3.org/2000/svg">
    <path d="M14.1735 28C6.89912 28 1 21.9547 1 14.5C1 7.04532 6.89912 1 14.1735 1" stroke="white" stroke-width="1.5" stroke-miterlimit="10" stroke-linecap="round"/>
    <path d="M20.9286 27.2402C21.3833 27.2402 21.7519 26.8625 21.7519 26.3965C21.7519 25.9305 21.3833 25.5527 20.9286 25.5527C20.4738 25.5527 20.1052 25.9305 20.1052 26.3965C20.1052 26.8625 20.4738 27.2402 20.9286 27.2402Z" fill="white"/>
    <path d="M25.7851 22.2622C26.2399 22.2622 26.6085 21.8844 26.6085 21.4185C26.6085 20.9525 26.2399 20.5747 25.7851 20.5747C25.3304 20.5747 24.9618 20.9525 24.9618 21.4185C24.9618 21.8844 25.3304 22.2622 25.7851 22.2622Z" fill="white"/>
    <path d="M27.518 15.5181C27.9728 15.5181 28.3414 15.1403 28.3414 14.6743C28.3414 14.2083 27.9728 13.8306 27.518 13.8306C27.0633 13.8306 26.6947 14.2083 26.6947 14.6743C26.6947 15.1403 27.0633 15.5181 27.518 15.5181Z" fill="white"/>
    <path d="M25.7851 8.74512C26.2399 8.74512 26.6085 8.36736 26.6085 7.90136C26.6085 7.43537 26.2399 7.05762 25.7851 7.05762C25.3304 7.05762 24.9618 7.43537 24.9618 7.90136C24.9618 8.36736 25.3304 8.74512 25.7851 8.74512Z" fill="white"/>
    <path d="M20.9286 3.81592C21.3833 3.81592 21.7519 3.43816 21.7519 2.97217C21.7519 2.50618 21.3833 2.12842 20.9286 2.12842C20.4738 2.12842 20.1052 2.50618 20.1052 2.97217C20.1052 3.43816 20.4738 3.81592 20.9286 3.81592Z" fill="white"/>
    <path d="M14.4235 2.79785V15.0106L9.89966 20.2719" stroke="white" stroke-width="1.5" stroke-miterlimit="10" stroke-linecap="round"/>
</svg>
