<svg width="100%" height="100%" viewBox="0 0 653 361" fill="none" xmlns="http://www.w3.org/2000/svg">
<g clip-path="url(#clip0_159_165)">
<path d="M16.6217 40.612L21.5821 17.4367H15.2129L16.0263 13.7502H22.3361L24.102 5.36084H28.586L26.8203 13.7502H36.5226L35.7686 17.4367H26.0067L21.1851 40.2532C20.3716 44.3383 21.9391 45.4343 25.4511 45.4343C27.3559 45.4343 28.5662 45.3745 29.8559 45.3745L29.0425 48.9813C27.0782 49.1208 26.1257 49.1208 23.7447 49.1208C18.447 49.1408 15.2725 47.168 16.6217 40.612Z" fill="black"/>
<path d="M46.685 0H51.1693L46.9629 19.688C49.5423 15.8819 53.61 12.9327 59.0465 12.9327C66.1101 12.9327 71.3284 17.8348 69.4236 26.9016L64.7411 49.0407H60.2568L64.8004 27.4994C66.2885 20.4054 62.6378 16.8783 57.2608 16.8783C52.0424 16.8783 46.7447 20.9035 45.1177 28.6751L40.7723 49.0407H36.2881L46.685 0Z" fill="black"/>
<path d="M90.6352 49.8188C82.4208 49.8188 75.7144 44.1596 75.7144 34.8336C75.7144 22.439 84.405 12.9536 95.3973 12.9536C103.612 12.9536 109.782 18.1347 109.782 26.9226C109.782 28.2776 109.644 29.6526 109.028 32.3826H80.4565C80.397 33.0601 80.3177 33.7376 80.3177 34.5546C80.3177 41.4295 84.5837 45.933 91.0322 45.933C96.1117 45.933 100.12 43.482 102.778 38.9785H107.382C104.207 46.0128 97.9766 49.8188 90.6352 49.8188ZM81.0717 28.696H105.08C105.219 27.9388 105.278 27.341 105.278 26.7233C105.278 20.8647 101.072 16.7796 94.9608 16.7796C88.6115 16.7796 82.8376 21.6817 81.0717 28.696Z" fill="black"/>
<path d="M2.91943 131.579C2.91943 90.4096 32.4237 65.5405 65.0432 65.5405C94.7262 65.5405 117.683 82.917 121.869 109.44H100.917C96.5518 94.2555 83.258 84.3717 65.0236 84.3717C42.8011 84.3717 25.122 102.844 25.122 131.579C25.122 160.294 42.8011 179.683 65.0236 179.683C83.2382 179.683 95.9962 170.178 101.095 154.615H122.048C116.949 181.875 94.7262 198.514 65.0432 198.514C31.7094 198.554 2.91943 173.107 2.91943 131.579Z" fill="black"/>
<path d="M141.711 64.623H161.394V196.341H141.711V64.623Z" fill="black"/>
<path d="M187.423 64.623H207.463V85.4868H187.423V64.623ZM187.621 101.588H207.304V196.361H187.621V101.588Z" fill="black"/>
<path d="M253.177 196.342H233.514V101.569H252.819V112.907C258.276 104.299 267.76 99.377 280.32 99.377C291.431 99.377 302.543 104.14 308.555 115.299C314.924 104.877 326.035 99.377 338.972 99.377C357.365 99.377 373.397 109.261 373.397 135.963V196.342H353.714V138.713C353.714 123.887 345.341 116.574 334.229 116.574C323.297 116.574 313.277 125.541 313.277 142.738V196.342H293.594V138.713C293.594 123.887 285.221 116.574 274.11 116.574C263.177 116.574 253.157 125.362 253.157 142.738V196.342H253.177Z" fill="black"/>
<path d="M457.369 183.908C451.357 193.055 441.337 198.355 427.131 198.355C409.65 198.355 392.884 188.651 392.884 169.461C392.884 148.796 410.008 142.021 434.79 137.996L456.099 134.529V133.612C456.099 120.261 448.817 115.319 436.615 115.319C424.77 115.319 417.309 120.998 415.127 131.599H395.999C398.559 111.832 415.662 99.397 437.349 99.397C459.214 99.397 475.604 108.185 475.425 134.15L475.068 177.332C475.068 180.261 475.247 184.825 475.981 196.362H457.766L457.369 183.908ZM430.782 182.274C444.81 182.274 456.099 173.685 456.099 156.847V150.072C425.127 153.918 412.388 157.206 412.388 168.544C412.388 177.332 420.027 182.274 430.782 182.274Z" fill="black"/>
<path d="M505.997 171.094V117.49H489.607V101.568H505.997V78.8911H525.481V101.568H548.061V117.49H525.481V168.344C525.481 178.587 528.933 180.42 536.235 180.42H548.08V196.142C541.156 196.501 538.417 196.501 531.136 196.501C516.195 196.541 505.997 191.958 505.997 171.094Z" fill="black"/>
<path d="M608.542 198.355C582.311 198.355 560.446 179.504 560.446 148.238C560.446 118.228 582.847 99.397 607.252 99.397C631.657 99.397 653.344 116.415 653.344 150.43V155.014H580.664C582.49 171.473 594.692 181.537 609.077 181.537C618.542 181.537 628.026 178.428 632.749 169.281H652.431C646.796 189.587 626.935 198.355 608.542 198.355ZM580.486 139.271H632.768C631.677 125.183 621.102 116.036 606.895 116.036C593.423 116.036 582.133 124.824 580.486 139.271Z" fill="black"/>
<path d="M90.16 292.57H33.5125L21.3099 324.394H0L50.8143 196.342H73.9496L124.764 324.394H102.363L90.16 292.57ZM83.4337 274.456L61.9454 217.923L40.2783 274.456H83.4337Z" fill="black"/>
<path d="M180.855 361C154.803 361 138.771 348.007 135.676 329.176H155.16C158.077 339.239 166.45 344.719 180.835 344.719C195.22 344.719 204.704 337.227 204.704 321.664V306.838C199.783 315.427 189.406 321.464 175.557 321.464C152.243 321.464 133.294 304.447 133.294 274.078C133.294 244.625 153.156 227.428 175.914 227.428C189.029 227.428 199.228 233.287 204.704 241.696V229.62H224.189V321.464C224.228 347.469 204.903 361 180.855 361ZM204.903 274.098C204.903 255.247 193.434 244.287 179.406 244.287C164.842 244.287 153.731 255.805 153.731 274.098C153.731 293.128 164.842 304.825 179.406 304.825C193.613 304.825 204.903 292.949 204.903 274.098Z" fill="black"/>
<path d="M292.343 326.427C266.112 326.427 244.247 307.576 244.247 276.31C244.247 246.3 266.648 227.469 291.053 227.469C315.458 227.469 337.145 244.487 337.145 278.502V283.085H264.465C266.291 299.545 278.494 309.608 292.879 309.608C302.343 309.608 311.827 306.5 316.569 297.353H336.232C330.578 317.639 310.736 326.427 292.343 326.427ZM264.287 267.323H316.569C315.478 253.235 304.903 244.088 290.696 244.088C277.204 244.088 265.914 252.876 264.287 267.323Z" fill="black"/>
<path d="M376.669 324.414H356.986V229.64H376.47V241.357C382.304 232.57 392.324 227.448 404.705 227.448C425.658 227.448 438.773 240.799 438.773 265.31V324.394H419.09V267.681C419.09 253.593 411.431 244.625 398.514 244.625C386.848 244.625 376.649 253.593 376.649 272.245V324.414H376.669Z" fill="black"/>
<path d="M457.529 276.289C457.529 247.754 478.66 227.448 504.712 227.448C526.379 227.448 545.705 241.716 547.887 262.938H528.403C525.665 251.599 515.645 244.824 504.533 244.824C488.68 244.824 477.747 258.175 477.747 276.289C477.747 295.14 489.037 309.029 504.533 309.029C515.466 309.029 525.109 302.812 528.403 290.736H547.887C544.792 313.234 524.931 326.406 504.355 326.406C478.124 326.426 457.529 306.658 457.529 276.289Z" fill="black"/>
<path d="M594.135 359.167H573.917L591.04 317.638L553.52 229.64H574.651L600.703 294.224L624.929 229.64H645.148L594.135 359.167Z" fill="black"/>
</g>
<defs>
<clipPath id="clip0_159_165">
<rect width="653" height="361" fill="white"/>
</clipPath>
</defs>
</svg>
