<svg width="22" height="60" viewBox="0 0 22 60" fill="none"
    xmlns="http://www.w3.org/2000/svg">
    <g clip-path="url(#clip0_159_92)">
        <path d="M2.77422 6.74954L3.60222 2.89769H2.53906L2.67485 2.28497H3.72808L4.02285 0.890625H4.77132L4.47659 2.28497H6.09612L5.97026 2.89769H4.34079L3.53595 6.68991C3.40016 7.36887 3.66182 7.55103 4.24804 7.55103C4.56599 7.55103 4.76801 7.5411 4.98329 7.5411L4.84753 8.14057C4.51964 8.16375 4.36065 8.16375 3.96321 8.16375C3.07891 8.16707 2.54901 7.83918 2.77422 6.74954Z" />
        <path d="M7.79407 0H8.54259L7.84045 3.27225C8.27101 2.63966 8.94999 2.14948 9.85748 2.14948C11.0365 2.14948 11.9076 2.96423 11.5896 4.47119L10.808 8.15081H10.0595L10.8179 4.57054C11.0663 3.39147 10.4569 2.80526 9.55939 2.80526C8.68834 2.80526 7.80404 3.47427 7.53245 4.76595L6.80711 8.15081H6.05859L7.79407 0Z" />
        <path d="M15.1293 8.27953C13.7581 8.27953 12.6387 7.33893 12.6387 5.78891C12.6387 3.72886 14.0893 2.15234 15.9242 2.15234C17.2953 2.15234 18.3254 3.01346 18.3254 4.47405C18.3254 4.69927 18.3022 4.92779 18.1995 5.38154H13.4302C13.4203 5.49414 13.4071 5.60675 13.4071 5.74254C13.4071 6.88518 14.1192 7.63369 15.1956 7.63369C16.0434 7.63369 16.7124 7.22631 17.1562 6.4778H17.9246C17.3947 7.64694 16.3547 8.27953 15.1293 8.27953ZM13.5329 4.76881H17.5404C17.5636 4.64296 17.5735 4.5436 17.5735 4.44093C17.5735 3.46721 16.8714 2.78824 15.8513 2.78824C14.7915 2.78824 13.8277 3.60299 13.5329 4.76881Z" />
        <path d="M0.488281 21.8695C0.488281 15.0269 5.41319 10.8936 10.8581 10.8936C15.8128 10.8936 19.6448 13.7816 20.3436 18.1899H16.8462C16.1176 15.6661 13.8985 14.0234 10.8548 14.0234C7.1454 14.0234 4.19438 17.0936 4.19438 21.8695C4.19438 26.6421 7.1454 29.8646 10.8548 29.8646C13.8952 29.8646 16.0248 28.2848 16.876 25.6982H20.3735C19.5223 30.229 15.8128 32.9945 10.8581 32.9945C5.29396 33.0011 0.488281 28.7717 0.488281 21.8695Z"/>
        <path d="M15.0497 48.6264H5.59398L3.5571 53.9157H0L8.48202 32.6328H12.3438L20.8258 53.9157H17.0866L15.0497 48.6264ZM13.9269 45.6158L10.34 36.2197L6.72334 45.6158H13.9269Z" />
    </g>
    <defs>
        <clipPath id="clip0_159_92">
            <rect width="22" height="60" fill="white"/>
        </clipPath>
    </defs>
</svg>
