<svg width="39" height="52" viewBox="0 0 39 52" fill="none" xmlns="http://www.w3.org/2000/svg">
<path d="M37.7741 1H38.7741V0H37.7741V1ZM30.8164 2H37.7741V0H30.8164V2ZM36.7741 1V7.95767H38.7741V1H36.7741Z" fill="black"/>
<path d="M30.0684 8.26172H31.0684V7.26172H30.0684V8.26172ZM23.1133 9.26172H30.0684V7.26172H23.1133V9.26172ZM29.0684 8.26172V15.2194H31.0684V8.26172H29.0684Z" fill="black"/>
<path d="M22.3652 15.5195H23.3652V14.5195H22.3652V15.5195ZM15.4102 16.5195H22.3652V14.5195H15.4102V16.5195ZM21.3652 15.5195V22.4746H23.3652V15.5195H21.3652Z" fill="black"/>
<path d="M14.6608 22.7812H15.6608V21.7812H14.6608V22.7812ZM7.70312 23.7812H14.6608V21.7812H7.70312V23.7812ZM13.6608 22.7812V29.7363H15.6608V22.7812H13.6608Z" fill="black"/>
<path d="M6.95766 30.0469H7.95766V29.0469H6.95766V30.0469ZM0 31.0469H6.95766V29.0469H0V31.0469ZM5.95766 30.0469V37.002H7.95766V30.0469H5.95766Z" fill="black"/>
</svg>
