<svg width='100%' height='100%' viewBox="0 0 39 38" fill="none"
    xmlns="http://www.w3.org/2000/svg">
    <path d="M37.7741 1.99805H38.7741V0.998047H37.7741V1.99805ZM30.8164 2.99805H37.7741V0.998047H30.8164V2.99805ZM36.7741 1.99805V8.95571H38.7741V1.99805H36.7741Z" fill="black"/>
    <path d="M30.0684 9.25977H31.0684V8.25977H30.0684V9.25977ZM23.1133 10.2598H30.0684V8.25977H23.1133V10.2598ZM29.0684 9.25977V16.2174H31.0684V9.25977H29.0684Z" fill="black"/>
    <path d="M22.3652 16.5176H23.3652V15.5176H22.3652V16.5176ZM15.4102 17.5176H22.3652V15.5176H15.4102V17.5176ZM21.3652 16.5176V23.4727H23.3652V16.5176H21.3652Z" fill="black"/>
    <path d="M14.6608 23.7793H15.6608V22.7793H14.6608V23.7793ZM7.70312 24.7793H14.6608V22.7793H7.70312V24.7793ZM13.6608 23.7793V30.7344H15.6608V23.7793H13.6608Z" fill="black"/>
    <path d="M6.95766 31.0449H7.95766V30.0449H6.95766V31.0449ZM0 32.0449H6.95766V30.0449H0V32.0449ZM5.95766 31.0449V38H7.95766V31.0449H5.95766Z" fill="black"/>
</svg>
